HIERARCHY
ROOT Hips
{
	OFFSET 0.000000 71.427986 0.000000
	CHANNELS 6 Xposition Yposition Zposition Xrotation Yrotation Zrotation
	JOINT Pelvis
	{
		OFFSET 0.000000 0.000000 0.000000
		CHANNELS 3 Xrotation Yrotation Zrotation
		JOINT LeftUpLeg
		{
			OFFSET 6.797100 -2.508499 -1.318700
			CHANNELS 3 Xrotation Yrotation Zrotation
			JOINT LeftLeg
			{
				OFFSET 0.069008 -29.241863 0.690200
				CHANNELS 3 Xrotation Yrotation Zrotation
				JOINT LeftFoot
				{
					OFFSET -0.069008 -29.568123 -0.266800
					CHANNELS 3 Xrotation Yrotation Zrotation
					JOINT LeftToeBase
					{
						OFFSET 3.145500 -8.631000 16.059900
						CHANNELS 3 Xrotation Yrotation Zrotation
						End Site
						{
							OFFSET 0.000000 18.501587 0.000000
						}
					}
				}
			}
			JOINT Left_ShortSleeve
			{
				OFFSET 0.265923 -10.480953 1.153800
				CHANNELS 3 Xrotation Yrotation Zrotation
				End Site
				{
					OFFSET 1.725763 19.823879 0.000000
				}
			}
		}
		JOINT RightUpLeg
		{
			OFFSET -6.797100 -2.508499 -1.318700
			CHANNELS 3 Xrotation Yrotation Zrotation
			JOINT RightLeg
			{
				OFFSET -0.082453 -29.241932 0.688000
				CHANNELS 3 Xrotation Yrotation Zrotation
				JOINT RightFoot
				{
					OFFSET 0.082453 -29.568058 -0.264600
					CHANNELS 3 Xrotation Yrotation Zrotation
					JOINT RightToeBase
					{
						OFFSET -3.115300 -8.682800 16.113400
						CHANNELS 3 Xrotation Yrotation Zrotation
						End Site
						{
							OFFSET 0.000000 18.567114 0.000000
						}
					}
				}
			}
			JOINT Right_ShortSleeve
			{
				OFFSET -0.265923 -10.480953 1.153800
				CHANNELS 3 Xrotation Yrotation Zrotation
				End Site
				{
					OFFSET -1.725766 19.823910 0.000000
				}
			}
		}
	}
	JOINT Spine
	{
		OFFSET 0.000000 13.368103 0.470500
		CHANNELS 3 Xrotation Yrotation Zrotation
		JOINT Spine1
		{
			OFFSET 0.147000 13.837402 0.538800
			CHANNELS 3 Xrotation Yrotation Zrotation
			JOINT Spine2
			{
				OFFSET 0.168000 16.242897 -1.435500
				CHANNELS 3 Xrotation Yrotation Zrotation
				JOINT Neck
				{
					OFFSET 0.217200 18.631500 -1.679100
					CHANNELS 3 Xrotation Yrotation Zrotation
					JOINT Head
					{
						OFFSET 0.000000 6.599396 1.385900
						CHANNELS 3 Xrotation Yrotation Zrotation
						JOINT Hat
						{
							OFFSET -0.532200 27.220596 -10.096100
							CHANNELS 3 Xrotation Yrotation Zrotation
							End Site
							{
								OFFSET 0.000000 22.029861 0.000000
							}
						}
						JOINT HairD
						{
							OFFSET -10.777400 17.437393 -1.325900
							CHANNELS 3 Xrotation Yrotation Zrotation
							JOINT HairD1
							{
								OFFSET -3.290299 -11.051193 1.062200
								CHANNELS 3 Xrotation Yrotation Zrotation
								End Site
								{
									OFFSET 0.000000 11.579437 0.000000
								}
							}
						}
						JOINT HairB
						{
							OFFSET -10.777400 17.437393 1.467900
							CHANNELS 3 Xrotation Yrotation Zrotation
							JOINT HairB1
							{
								OFFSET -1.561200 -12.956299 3.590200
								CHANNELS 3 Xrotation Yrotation Zrotation
								End Site
								{
									OFFSET 0.000000 13.534866 0.000000
								}
							}
						}
						JOINT HairA
						{
							OFFSET 9.713100 17.437393 1.467900
							CHANNELS 3 Xrotation Yrotation Zrotation
							JOINT HairA1
							{
								OFFSET 1.561200 -12.956299 3.590200
								CHANNELS 3 Xrotation Yrotation Zrotation
								End Site
								{
									OFFSET 0.000000 13.534866 0.000000
								}
							}
						}
						JOINT HairC
						{
							OFFSET 9.713100 17.437393 -1.325900
							CHANNELS 3 Xrotation Yrotation Zrotation
							JOINT HairC1
							{
								OFFSET 3.290300 -11.051193 1.062200
								CHANNELS 3 Xrotation Yrotation Zrotation
								End Site
								{
									OFFSET 0.000000 11.579437 0.000000
								}
							}
						}
					}
				}
				JOINT LeftShoulder
				{
					OFFSET 5.101800 15.108002 -2.763700
					CHANNELS 3 Xrotation Yrotation Zrotation
					JOINT LeftArm
					{
						OFFSET 9.825497 2.506317 -1.597400
						CHANNELS 3 Xrotation Yrotation Zrotation
						JOINT LeftForeArm
						{
							OFFSET 21.966244 0.000000 0.000000
							CHANNELS 3 Xrotation Yrotation Zrotation
							JOINT LeftHand
							{
								OFFSET 33.879036 0.000000 0.000000
								CHANNELS 3 Xrotation Yrotation Zrotation
								JOINT LeftHandThumb1
								{
									OFFSET 6.715286 -2.359680 3.363841
									CHANNELS 3 Xrotation Yrotation Zrotation
									JOINT LeftHandThumb2
									{
										OFFSET 2.507072 -1.447464 1.447461
										CHANNELS 3 Xrotation Yrotation Zrotation
										JOINT LeftHandThumb3
										{
											OFFSET 2.898338 -1.673355 1.673357
											CHANNELS 3 Xrotation Yrotation Zrotation
											End Site
											{
												OFFSET -0.295959 3.727692 -0.131651
											}
										}
									}
								}
								JOINT LeftHandIndex1
								{
									OFFSET 14.190811 -0.254547 3.840278
									CHANNELS 3 Xrotation Yrotation Zrotation
									JOINT LeftHandIndex2
									{
										OFFSET 3.551727 0.000000 -0.000000
										CHANNELS 3 Xrotation Yrotation Zrotation
										JOINT LeftHandIndex3
										{
											OFFSET 2.894196 0.000000 0.000000
											CHANNELS 3 Xrotation Yrotation Zrotation
											End Site
											{
												OFFSET -1.000603 2.690872 0.366626
											}
										}
									}
								}
								JOINT LeftHandMiddle1
								{
									OFFSET 13.776489 0.000000 0.000000
									CHANNELS 3 Xrotation Yrotation Zrotation
									JOINT LeftHandMiddle2
									{
										OFFSET 3.438232 0.000000 0.000000
										CHANNELS 3 Xrotation Yrotation Zrotation
										JOINT LeftHandMiddle3
										{
											OFFSET 3.691551 0.000000 0.000000
											CHANNELS 3 Xrotation Yrotation Zrotation
											End Site
											{
												OFFSET -1.082298 3.499527 0.457670
											}
										}
									}
								}
								JOINT LeftHandRing1
								{
									OFFSET 13.966164 -0.268127 -3.067488
									CHANNELS 3 Xrotation Yrotation Zrotation
									JOINT LeftHandRing2
									{
										OFFSET 3.162567 0.000000 0.000000
										CHANNELS 3 Xrotation Yrotation Zrotation
										JOINT LeftHandRing3
										{
											OFFSET 3.324348 0.000000 0.000000
											CHANNELS 3 Xrotation Yrotation Zrotation
											End Site
											{
												OFFSET -0.861900 3.184998 0.405154
											}
										}
									}
								}
								JOINT LeftHandPinky1
								{
									OFFSET 13.131393 -0.168503 -5.746925
									CHANNELS 3 Xrotation Yrotation Zrotation
									JOINT LeftHandPinky2
									{
										OFFSET 2.849182 0.000000 0.000000
										CHANNELS 3 Xrotation Yrotation Zrotation
										JOINT LeftHandPinky3
										{
											OFFSET 2.805038 0.000000 0.000000
											CHANNELS 3 Xrotation Yrotation Zrotation
											End Site
											{
												OFFSET -0.882500 2.642609 0.325652
											}
										}
									}
								}
							}
							JOINT Left_Sleeve
							{
								OFFSET 6.592125 -0.646545 0.805568
								CHANNELS 3 Xrotation Yrotation Zrotation
								End Site
								{
									OFFSET -0.000179 20.275787 -0.000000
								}
							}
						}
					}
				}
				JOINT RightShoulder
				{
					OFFSET -5.731700 15.108002 -2.763700
					CHANNELS 3 Xrotation Yrotation Zrotation
					JOINT RightArm
					{
						OFFSET -9.825497 2.506317 -1.597400
						CHANNELS 3 Xrotation Yrotation Zrotation
						JOINT RightForeArm
						{
							OFFSET -21.966242 0.000000 0.000000
							CHANNELS 3 Xrotation Yrotation Zrotation
							JOINT RightHand
							{
								OFFSET -33.879032 0.000000 0.000000
								CHANNELS 3 Xrotation Yrotation Zrotation
								JOINT RightHandThumb1
								{
									OFFSET -6.715286 -2.359680 3.363841
									CHANNELS 3 Xrotation Yrotation Zrotation
									JOINT RightHandThumb2
									{
										OFFSET -2.507072 -1.447464 1.447461
										CHANNELS 3 Xrotation Yrotation Zrotation
										JOINT RightHandThumb3
										{
											OFFSET -2.898338 -1.673355 1.673357
											CHANNELS 3 Xrotation Yrotation Zrotation
											End Site
											{
												OFFSET 0.295959 3.727692 -0.131651
											}
										}
									}
								}
								JOINT RightHandIndex1
								{
									OFFSET -14.190811 -0.254547 3.840278
									CHANNELS 3 Xrotation Yrotation Zrotation
									JOINT RightHandIndex2
									{
										OFFSET -3.551727 0.000000 -0.000000
										CHANNELS 3 Xrotation Yrotation Zrotation
										JOINT RightHandIndex3
										{
											OFFSET -2.894196 0.000000 0.000000
											CHANNELS 3 Xrotation Yrotation Zrotation
											End Site
											{
												OFFSET 1.000603 2.690872 0.366626
											}
										}
									}
								}
								JOINT RightHandMiddle1
								{
									OFFSET -13.776489 0.000000 0.000000
									CHANNELS 3 Xrotation Yrotation Zrotation
									JOINT RightHandMiddle2
									{
										OFFSET -3.438232 0.000000 0.000000
										CHANNELS 3 Xrotation Yrotation Zrotation
										JOINT RightHandMiddle3
										{
											OFFSET -3.691551 0.000000 0.000000
											CHANNELS 3 Xrotation Yrotation Zrotation
											End Site
											{
												OFFSET 1.082298 3.499527 0.457670
											}
										}
									}
								}
								JOINT RightHandRing1
								{
									OFFSET -13.966164 -0.268127 -3.067488
									CHANNELS 3 Xrotation Yrotation Zrotation
									JOINT RightHandRing2
									{
										OFFSET -3.162567 0.000000 0.000000
										CHANNELS 3 Xrotation Yrotation Zrotation
										JOINT RightHandRing3
										{
											OFFSET -3.324348 0.000000 0.000000
											CHANNELS 3 Xrotation Yrotation Zrotation
											End Site
											{
												OFFSET 0.861900 3.184998 0.405154
											}
										}
									}
								}
								JOINT RightHandPinky1
								{
									OFFSET -13.131393 -0.168503 -5.746925
									CHANNELS 3 Xrotation Yrotation Zrotation
									JOINT RightHandPinky2
									{
										OFFSET -2.849182 0.000000 0.000000
										CHANNELS 3 Xrotation Yrotation Zrotation
										JOINT RightHandPinky3
										{
											OFFSET -2.805038 0.000000 0.000000
											CHANNELS 3 Xrotation Yrotation Zrotation
											End Site
											{
												OFFSET 0.882500 2.642609 0.325652
											}
										}
									}
								}
							}
							JOINT Right_Sleeve
							{
								OFFSET -6.592125 -0.646545 0.805568
								CHANNELS 3 Xrotation Yrotation Zrotation
								End Site
								{
									OFFSET 0.000179 20.275787 -0.000000
								}
							}
						}
					}
				}
				JOINT Bind_Right_JacketString
				{
					OFFSET -3.534800 11.969597 7.200700
					CHANNELS 3 Xrotation Yrotation Zrotation
					JOINT Bind_Right_JacketString1
					{
						OFFSET -0.319900 -6.102600 2.794100
						CHANNELS 3 Xrotation Yrotation Zrotation
						End Site
						{
							OFFSET 0.000000 6.719452 0.000000
						}
					}
				}
				JOINT Bind_Left_JacketString
				{
					OFFSET 2.904800 11.969597 7.200700
					CHANNELS 3 Xrotation Yrotation Zrotation
					JOINT Bind_Left_JacketString1
					{
						OFFSET 0.364800 -5.904503 3.186800
						CHANNELS 3 Xrotation Yrotation Zrotation
						End Site
						{
							OFFSET 0.000000 6.719513 0.000000
						}
					}
				}
				JOINT HairE
				{
					OFFSET 5.915200 17.612701 -11.592200
					CHANNELS 3 Xrotation Yrotation Zrotation
					JOINT HairE1
					{
						OFFSET 0.289200 -7.171898 -1.284500
						CHANNELS 3 Xrotation Yrotation Zrotation
						End Site
						{
							OFFSET 0.000000 7.291756 0.000000
						}
					}
				}
				JOINT HairF
				{
					OFFSET -0.864800 17.612701 -11.592200
					CHANNELS 3 Xrotation Yrotation Zrotation
					JOINT HairF1
					{
						OFFSET 0.000000 -14.087097 -2.127501
						CHANNELS 3 Xrotation Yrotation Zrotation
						End Site
						{
							OFFSET 0.000000 14.246841 0.000000
						}
					}
				}
				JOINT HairG
				{
					OFFSET -8.087700 17.612701 -11.592200
					CHANNELS 3 Xrotation Yrotation Zrotation
					JOINT HairG1
					{
						OFFSET -0.293600 -6.081398 -0.910100
						CHANNELS 3 Xrotation Yrotation Zrotation
						End Site
						{
							OFFSET 0.000000 6.156120 0.000000
						}
					}
				}
			}
		}
	}
	JOINT Pouch
	{
		OFFSET 0.000000 4.394501 10.847300
		CHANNELS 3 Xrotation Yrotation Zrotation
		End Site
		{
			OFFSET 0.000000 21.880577 0.000000
		}
	}
	JOINT Bag
	{
		OFFSET -13.229000 4.813004 -0.593300
		CHANNELS 3 Xrotation Yrotation Zrotation
		End Site
		{
			OFFSET 0.000000 21.880577 0.000000
		}
	}
	JOINT OccupyGuyFacialAnim_Joint
	{
		OFFSET 1.000000 -70.206398 -1.655000
		CHANNELS 3 Xrotation Yrotation Zrotation
		End Site
		{
			OFFSET 0.000000 21.880577 0.000000
		}
	}
}
MOTION
Frames: 4
Frame Time: 0.033333
11.321065 68.868034 237.576981 6.783196 -45.955391 3.715526 -0.000000 0.000000 -0.000000 -17.391426 22.747009 9.591291 31.147712 2.825545 -2.647485 -19.889731 -6.280626 -1.935631 0.000000 -0.000002 -0.000000 0.000001 0.000001 -0.000000 -73.688281 -11.754431 15.890623 56.672784 10.073972 5.944208 -12.120121 -2.798044 8.387921 -0.000001 0.000000 -0.000000 -0.000003 0.000001 0.000001 21.980522 -1.714644 0.498691 7.868820 -3.694202 1.470918 7.885728 -3.604555 1.685077 7.788884 20.919695 -11.989887 -23.859584 21.472153 -5.946677 -0.000001 0.000000 -0.000000 -0.000001 0.000000 -0.000000 -0.000001 0.000000 -0.000000 -0.000001 0.000000 -0.000001 -0.000003 0.000000 -0.000000 -0.000001 0.000000 -0.000001 -0.000003 0.000000 -0.000000 -0.000001 0.000000 -0.000000 -0.000001 0.000000 -0.000000 2.269790 3.306728 -9.075143 -54.360284 32.170283 7.453668 69.866818 -39.681114 59.821215 -4.542077 10.606616 -4.412455 40.109907 -15.297124 -0.360453 5.639879 28.097892 11.338786 -0.000001 0.000003 0.000000 6.882210 2.840043 -61.140466 8.247932 7.640029 -89.897850 -0.000001 0.000004 -0.000003 -2.345587 4.688856 -62.655210 8.754157 9.897092 -87.051335 0.000005 -0.000002 -0.000001 -9.042574 10.045687 -60.766178 8.524113 9.508833 -66.892974 0.000002 0.000000 0.000001 -17.947012 14.754990 -51.485840 8.868466 8.667041 -84.812016 0.000003 -0.000000 0.000003 0.000006 -0.000000 0.000000 1.985130 4.918985 9.537491 23.013426 -24.545678 15.771849 -52.399985 51.146980 46.649953 -3.687490 -22.305455 -14.604859 -2.057367 -5.890248 11.562370 2.061640 -23.411102 -8.507690 -0.000002 0.000000 0.000001 0.262083 2.097710 -2.449572 0.158868 0.372476 2.685333 -0.000000 0.000003 -0.000004 0.461557 -5.604915 -2.645679 1.432223 -3.986920 22.542192 0.000002 -0.000002 0.000002 2.025093 -11.372470 -0.456819 1.783811 -3.497078 24.817649 -0.000004 0.000001 0.000000 2.415561 -19.759807 5.912644 3.950438 -1.659771 12.363322 -0.000001 0.000003 -0.000001 0.000000 0.000002 -0.000002 0.000001 0.000001 -0.000001 0.000001 0.000001 -0.000003 0.000001 0.000001 0.000001 0.000001 0.000001 0.000001 0.000001 0.000001 -0.000001 0.000001 0.000001 -0.000003 0.000001 0.000001 0.000001 0.000001 0.000001 0.000001 0.000001 0.000001 -0.000001 0.000001 0.000001 -0.000003 -0.000000 0.000000 -0.000000 -0.000000 0.000000 -0.000000 -0.000000 0.000000 -0.000000 
11.099223 65.063057 245.666931 1.419389 -46.233001 3.268006 -0.000000 0.000001 -0.000000 -10.202542 26.244939 3.800989 44.791206 3.636921 -3.861579 -35.441548 -9.937281 -0.705572 -0.000000 0.000002 -0.000000 -0.000001 -0.000001 -0.000000 -62.178907 -6.799108 14.493361 44.602505 7.661576 5.102219 -10.593857 -2.594273 9.260177 -0.000002 -0.000000 0.000001 -0.000000 0.000001 -0.000000 23.696800 -2.663684 -0.326287 8.964061 -5.015661 1.440651 9.023403 -4.870079 1.733708 5.092361 21.824951 -13.651566 -23.304959 20.967636 -4.923106 0.000001 0.000000 -0.000000 0.000001 0.000000 -0.000000 0.000001 0.000000 0.000000 0.000001 0.000000 -0.000000 0.000001 -0.000000 0.000000 0.000001 0.000000 -0.000000 0.000001 -0.000000 0.000000 0.000001 0.000000 -0.000000 0.000001 0.000000 -0.000000 2.124038 3.171975 -8.850629 -54.535700 29.497453 3.797201 70.411361 -37.757211 59.916564 -4.059059 11.189037 -6.684589 40.109903 -15.297127 -0.360450 5.639880 28.097890 11.338782 0.000000 -0.000001 -0.000000 6.882205 2.840040 -61.140466 8.247933 7.640034 -89.897843 0.000002 0.000000 -0.000002 -2.345586 4.688854 -62.655210 8.754153 9.897090 -87.051335 0.000000 0.000000 -0.000001 -9.042575 10.045686 -60.766171 8.524112 9.508832 -66.892974 -0.000006 0.000001 0.000000 -17.947022 14.754993 -51.485843 8.868470 8.667038 -84.812016 0.000003 0.000002 -0.000002 -0.000000 -0.000000 0.000000 0.950547 3.227778 11.957031 26.002861 -21.129462 19.527760 -45.685824 48.725569 38.699186 -4.220542 -23.654789 -16.606970 -2.324375 -6.086058 10.800176 2.339774 -23.773554 -8.749650 0.000003 -0.000001 0.000001 -0.037090 0.661063 0.421388 0.040005 -0.051635 5.740335 -0.000003 0.000002 0.000001 0.272651 -5.894255 1.353104 1.413655 -4.188319 23.699920 -0.000002 -0.000001 -0.000001 1.996264 -11.293212 3.938108 1.795306 -3.743909 26.699394 0.000001 -0.000000 0.000003 2.146258 -19.206494 10.876174 3.397496 -2.078831 18.300971 0.000004 -0.000001 -0.000003 0.000004 -0.000003 0.000000 0.000001 -0.000000 -0.000002 -0.000000 -0.000000 -0.000002 0.000001 -0.000000 -0.000000 0.000001 -0.000000 -0.000000 0.000001 -0.000000 -0.000002 -0.000000 -0.000000 -0.000002 0.000001 -0.000000 -0.000000 0.000001 -0.000000 -0.000000 0.000001 -0.000000 -0.000002 -0.000000 -0.000000 -0.000002 -0.000000 0.000001 -0.000000 -0.000000 0.000001 -0.000000 -0.000000 0.000001 -0.000000 
10.704143 62.681923 253.922363 -1.009739 -44.865580 4.424133 0.000000 0.000000 -0.000000 1.181101 18.904924 -6.879009 45.055462 6.756024 -7.231775 -42.378834 -6.089497 2.548811 -0.000000 0.000002 -0.000000 0.000000 -0.000002 0.000000 -52.482962 -2.311632 11.304532 34.047011 5.716278 3.115245 -11.006046 -1.373788 10.234911 -0.000001 -0.000000 0.000001 -0.000003 -0.000003 -0.000001 24.957110 -3.643850 -0.106739 9.727112 -6.713971 1.555801 9.807016 -6.541346 1.941315 1.276863 23.358759 -15.996414 -21.404729 20.388303 -3.388583 0.000002 -0.000001 -0.000000 0.000002 -0.000001 -0.000000 0.000002 -0.000001 0.000000 0.000002 -0.000001 -0.000000 -0.000000 -0.000001 -0.000000 0.000002 -0.000001 -0.000000 -0.000000 -0.000001 -0.000000 0.000002 -0.000001 -0.000000 0.000002 -0.000001 -0.000000 2.098537 1.459030 -9.606668 -54.920759 26.794171 -2.991124 68.113597 -34.278940 55.999741 -3.846897 10.418683 -6.465903 40.109910 -15.297127 -0.360453 5.639880 28.097890 11.338782 0.000001 -0.000001 0.000001 6.882210 2.840041 -61.140473 8.247931 7.640030 -89.897850 -0.000003 0.000000 -0.000002 -2.345583 4.688854 -62.655210 8.754154 9.897095 -87.051335 0.000004 0.000001 -0.000004 -9.042574 10.045685 -60.766178 8.524113 9.508831 -66.892974 0.000003 0.000003 0.000001 -17.947019 14.754993 -51.485840 8.868467 8.667040 -84.812009 -0.000001 0.000001 -0.000002 -0.000001 0.000000 0.000000 0.170204 2.095613 14.693767 21.834081 -18.450942 20.558938 -38.361870 46.340532 30.056808 -4.392124 -23.199243 -18.239849 -2.652590 -6.318040 9.860047 2.683035 -24.220793 -9.042862 0.000000 -0.000001 -0.000000 -0.206322 -1.132266 3.934057 -0.043485 -0.586642 9.470915 -0.000003 0.000002 0.000002 0.097415 -6.321211 6.206932 1.401671 -4.439570 25.107116 0.000003 -0.000003 0.000001 1.948549 -11.308453 9.331632 1.834490 -4.050960 29.011167 0.000003 -0.000004 -0.000005 1.731818 -18.810628 17.001386 2.907228 -2.760310 25.589905 -0.000001 -0.000003 0.000002 0.000001 -0.000001 0.000002 0.000002 -0.000002 0.000001 0.000000 0.000001 0.000000 0.000002 -0.000002 0.000001 0.000002 -0.000002 0.000001 0.000002 -0.000002 0.000001 0.000000 0.000001 0.000001 0.000002 -0.000002 0.000001 0.000002 -0.000002 0.000001 0.000002 -0.000002 0.000001 0.000000 0.000001 0.000001 0.000000 0.000000 -0.000000 0.000000 0.000000 -0.000000 0.000000 0.000000 -0.000000 
9.926485 61.093719 263.562622 4.965862 -45.012914 4.342839 0.000000 -0.000003 0.000000 2.584327 13.266057 -8.318530 48.120240 9.302378 -12.112780 -43.447889 -3.686605 6.437331 -0.000000 -0.000001 0.000000 0.000000 0.000000 -0.000000 -55.367269 -0.919500 14.538010 40.402509 8.420970 1.130163 -16.152684 0.496571 -4.375133 0.000001 0.000001 0.000001 0.000003 -0.000001 -0.000003 22.222596 -3.193823 4.089682 7.847237 -7.955614 3.488038 7.831157 -7.833716 3.909440 5.536043 25.213920 -17.628686 -20.710221 22.906865 -4.106264 0.000002 0.000001 -0.000001 0.000002 0.000001 -0.000001 0.000002 0.000001 -0.000001 0.000002 0.000001 -0.000000 0.000002 0.000001 0.000000 0.000002 0.000001 -0.000000 0.000002 0.000001 0.000000 0.000002 0.000001 -0.000001 0.000002 0.000001 -0.000001 1.402202 -0.664686 -10.465788 -50.756259 29.165041 -11.097167 65.073507 -33.007405 50.735154 -2.931318 6.924057 -5.986540 40.109907 -15.297127 -0.360450 5.639881 28.097892 11.338780 -0.000002 0.000001 0.000001 6.882205 2.840041 -61.140473 8.247934 7.640029 -89.897850 -0.000000 0.000002 0.000000 -2.345586 4.688853 -62.655210 8.754153 9.897090 -87.051328 0.000002 -0.000001 -0.000003 -9.042576 10.045682 -60.766171 8.524113 9.508841 -66.892974 -0.000001 0.000001 -0.000005 -17.947015 14.754991 -51.485840 8.868468 8.667043 -84.812016 -0.000002 0.000000 0.000001 0.000003 0.000000 0.000001 0.073239 1.905036 17.547410 17.742883 -17.697724 18.485569 -39.399396 41.823301 31.649751 -3.839821 -18.570690 -20.342612 -3.021640 -6.573389 8.789958 3.073246 -24.728201 -9.368801 0.000003 0.000000 -0.000001 -0.132064 -3.174750 7.902902 -0.053668 -1.202495 13.681427 -0.000001 -0.000002 -0.000000 -0.003213 -6.886802 11.709522 1.404417 -4.727378 26.701598 0.000003 -0.000002 -0.000001 1.926165 -11.462750 15.432954 1.912583 -4.401216 31.628441 -0.000000 -0.000002 0.000001 1.231354 -18.753577 23.977210 2.643067 -3.697820 33.828701 -0.000000 0.000004 0.000003 0.000002 -0.000002 -0.000002 -0.000000 -0.000001 -0.000000 -0.000000 -0.000002 0.000001 -0.000000 -0.000001 -0.000001 -0.000000 -0.000001 -0.000001 -0.000000 -0.000001 -0.000000 -0.000000 -0.000002 0.000001 -0.000000 -0.000001 -0.000001 -0.000000 -0.000001 -0.000001 -0.000000 -0.000001 -0.000000 -0.000000 -0.000002 0.000001 0.000000 -0.000003 0.000000 0.000000 -0.000003 0.000000 0.000000 -0.000003 0.000000 
